<svg id="Group_16" data-name="Group 16" xmlns="http://www.w3.org/2000/svg" width="73.31" height="73.31" viewBox="0 0 73.31 73.31">
  <g id="Group_15" data-name="Group 15" transform="translate(0)">
    <path id="Path_295" data-name="Path 295" d="M282.791,96.237a36.655,36.655,0,1,0-42.382,36.21V106.833H231.1v-10.6h9.306V88.162c0-9.185,5.473-14.262,13.846-14.262a56.274,56.274,0,0,1,8.205.717v9.02h-4.623c-4.553,0-5.974,2.825-5.974,5.726v6.874h10.166l-1.625,10.6h-8.541v25.613A36.665,36.665,0,0,0,282.791,96.237Z" transform="translate(-209.481 -59.583)" fill="#fec223"/>
    <path id="Path_296" data-name="Path 296" d="M247.407,98.227l1.625-10.6H238.866V80.757c0-2.9,1.421-5.726,5.974-5.726h4.623v-9.02a56.274,56.274,0,0,0-8.205-.717c-8.373,0-13.846,5.076-13.846,14.262v8.075h-9.306v10.6h9.306V123.84a36.975,36.975,0,0,0,11.454,0V98.227Z" transform="translate(-196.484 -50.977)" fill="none"/>
  </g>
</svg>
