<svg xmlns="http://www.w3.org/2000/svg" width="74.309" height="74.309" viewBox="0 0 74.309 74.309">
  <g id="Group_12" data-name="Group 12" transform="translate(0.5 0.5)">
    <path id="Subtraction_2" data-name="Subtraction 2" d="M36.655,73.309A36.664,36.664,0,0,1,22.387,2.881,36.664,36.664,0,0,1,50.922,70.429,36.425,36.425,0,0,1,36.655,73.309ZM17.31,49.155a.334.334,0,0,0-.173.039.078.078,0,0,0-.044.061c0,.055.07.12.149.182.509.338,1.023.627,1.413.84a22.586,22.586,0,0,0,4.54,1.817,26.6,26.6,0,0,0,7.08.962,23.013,23.013,0,0,0,16.4-6.451c4.312-4.287,6.5-10.336,6.5-17.977,0-.208.2-.34.37-.456.042-.028.081-.054.116-.08a15.888,15.888,0,0,0,3.2-3.324,1.02,1.02,0,0,0,.211-.637v-.036c0-.048,0-.067-.016-.067a.189.189,0,0,0-.06.025c-.022.011-.05.026-.087.042a16.432,16.432,0,0,1-4.042,1.153c.658-.112,1.622-1.311,1.985-1.763a7.4,7.4,0,0,0,1.342-2.446c.049-.1.046-.168-.008-.21a.237.237,0,0,0-.09-.019.279.279,0,0,0-.126.036,20.6,20.6,0,0,1-4.793,1.836.426.426,0,0,1-.1.013.312.312,0,0,1-.229-.1,3.773,3.773,0,0,0-.419-.429,8.468,8.468,0,0,0-2.321-1.422,8.118,8.118,0,0,0-3.04-.591c-.174,0-.349.006-.523.017a8.54,8.54,0,0,0-3.379.955,8.729,8.729,0,0,0-2.725,2.226,8.351,8.351,0,0,0-1.627,3.259,8.745,8.745,0,0,0-.085,3.442c.013.1.015.152-.009.179a.086.086,0,0,1-.069.022.624.624,0,0,1-.087-.008,30.508,30.508,0,0,1-9.044-2.666,23.464,23.464,0,0,1-7.429-5.717c-.1-.114-.169-.163-.235-.163s-.134.053-.218.179c-1.993,2.987-.892,7.674,1.424,9.869.295.279.64.6,1.013.89h-.044a8.643,8.643,0,0,1-3.135-.893.317.317,0,0,0-.16-.06c-.085,0-.134.076-.146.226a5.058,5.058,0,0,0,.053.943,8.471,8.471,0,0,0,5.2,6.734,4.908,4.908,0,0,0,1.058.324,6.73,6.73,0,0,1-1.595.165c-.423,0-.921-.023-1.524-.07A.483.483,0,0,0,21.7,40a.168.168,0,0,0-.149.062.26.26,0,0,0,.008.236c1.305,3.554,4.044,4.767,6.551,5.485.127.023.258.036.384.049A3.981,3.981,0,0,1,29,45.9a.093.093,0,0,1-.025.024.084.084,0,0,0-.028.029c-.7,1.062-3.026,1.867-4.277,2.3l-.017.006-.181.063a16.532,16.532,0,0,1-5.383.939c-.474,0-.947-.023-1.408-.069A2.878,2.878,0,0,0,17.31,49.155Z" transform="translate(0 0)" fill="#fec223" stroke="rgba(0,0,0,0)" stroke-miterlimit="10" stroke-width="1"/>
  </g>
</svg>
