<svg xmlns="http://www.w3.org/2000/svg" width="74.309" height="74.309" viewBox="0 0 74.309 74.309">
  <path id="Subtraction_1" data-name="Subtraction 1" d="M36.655,73.309A36.664,36.664,0,0,1,22.387,2.881,36.664,36.664,0,0,1,50.922,70.429,36.424,36.424,0,0,1,36.655,73.309ZM28.075,15.115a12.924,12.924,0,0,0-12.91,12.908v17.16A12.924,12.924,0,0,0,28.075,58.09H45.233A12.924,12.924,0,0,0,58.144,45.182V28.023A12.924,12.924,0,0,0,45.233,15.115ZM45.233,54.05H28.075a8.877,8.877,0,0,1-8.867-8.867V28.023a8.876,8.876,0,0,1,8.867-8.865H45.233A8.876,8.876,0,0,1,54.1,28.023v17.16A8.878,8.878,0,0,1,45.233,54.05Zm-8.4-28.03A10.584,10.584,0,1,0,47.414,36.6,10.6,10.6,0,0,0,36.829,26.02Zm11.2-3.231a2.519,2.519,0,1,0,2.52,2.519A2.522,2.522,0,0,0,48.033,22.788Zm-11.2,20.594A6.78,6.78,0,1,1,43.611,36.6,6.786,6.786,0,0,1,36.829,43.382Z" transform="translate(0.5 0.5)" fill="#fec223" stroke="rgba(0,0,0,0)" stroke-miterlimit="10" stroke-width="1"/>
</svg>
