<svg id="team_3_" data-name="team (3)" xmlns="http://www.w3.org/2000/svg" width="208.569" height="208.538" viewBox="0 0 208.569 208.538">
  <path id="Path_246" data-name="Path 246" d="M107.146,209.165a3.147,3.147,0,0,1-.091-6.293l.135,0a3.148,3.148,0,0,1,.011,6.295Zm.043-2.689,0,.035v-.492Zm-12.6,2.01a3.267,3.267,0,0,1-.372-.022l-.041,0a3.147,3.147,0,0,1,.735-6.25l.041,0a3.147,3.147,0,0,1-.363,6.273Zm25.14-.223a3.18,3.18,0,1,1,.5-.04l-.121.018A3.12,3.12,0,0,1,119.732,208.263Zm-37.557-2.051a3.236,3.236,0,0,1-.743-.089l-.127-.033a3.141,3.141,0,1,1,.87.123Zm49.933-.425a3.181,3.181,0,1,1,.87-.123c-.027.008-.1.027-.127.033A3.131,3.131,0,0,1,132.109,205.787Zm-61.959-3.41a3.13,3.13,0,0,1-1.1-.2c-.037-.014-.113-.045-.15-.06a3.143,3.143,0,1,1,1.254.261Zm73.941-.608a3.145,3.145,0,0,1-1.23-6.044l.072-.029a3.147,3.147,0,0,1,2.369,5.83l-1.185-2.915,1.173,2.92A3.147,3.147,0,0,1,144.091,201.769ZM58.7,197.054a3.115,3.115,0,0,1-1.473-.371l-.108-.059a3.141,3.141,0,1,1,1.582.43Zm96.743-.767a3.164,3.164,0,1,1,1.585-.43c-.01,0-.057.032-.068.037a3.116,3.116,0,0,1-1.516.393ZM48.021,190.345a3.141,3.141,0,0,1-1.832-.587l-.078-.057a3.155,3.155,0,1,1,1.91.644Zm118.01-.934a3.147,3.147,0,0,1-1.89-5.665l.049-.037a3.147,3.147,0,1,1,3.746,5.057l-1.873-2.529,1.854,2.543A3.132,3.132,0,0,1,166.031,189.411ZM38.263,182.349a3.155,3.155,0,0,1-2.142-.835l-.08-.073a3.162,3.162,0,1,1,2.221.909Zm137.395-1.1a3.162,3.162,0,1,1,2.209-.905l-.032.03a3.141,3.141,0,0,1-2.177.875ZM29.593,173.177a3.152,3.152,0,0,1-2.414-1.119l-.064-.076a3.153,3.153,0,1,1,2.478,1.2Zm154.574-1.249a3.173,3.173,0,1,1,2.511-1.248c-.035.046-.07.091-.108.134A3.14,3.14,0,0,1,184.167,171.928ZM22.15,162.972a3.142,3.142,0,0,1-2.676-1.488l2.673-1.66-2.676,1.656a3.131,3.131,0,0,1,.918-4.341,3.165,3.165,0,0,1,4.368.924l.064.1a3.146,3.146,0,0,1-2.67,4.807Zm169.279-1.378a3.1,3.1,0,0,1-1.625-.457,3.138,3.138,0,0,1-1.069-4.3l.048-.076a3.147,3.147,0,0,1,5.347,3.319l-2.673-1.66,2.669,1.668a3.165,3.165,0,0,1-2.7,1.5ZM16.061,151.91a3.137,3.137,0,0,1-2.829-1.773l-.054-.113a3.147,3.147,0,1,1,4.252,1.571,3.116,3.116,0,0,1-1.368.315Zm181.3-1.45a3.149,3.149,0,0,1-2.866-4.443,3.161,3.161,0,0,1,4.171-1.591,3.127,3.127,0,0,1,1.582,4.144l-.017.038a3.146,3.146,0,0,1-2.869,1.852ZM11.409,140.179a3.142,3.142,0,0,1-2.972-2.121c-.013-.038-.038-.115-.049-.151a3.143,3.143,0,1,1,3.022,2.272Zm190.427-1.515a3.111,3.111,0,0,1-.939-.145,3.164,3.164,0,1,1,3.962-2.131l-.021.065A3.147,3.147,0,0,1,201.836,138.665ZM8.27,127.957a3.166,3.166,0,1,1,3.074-3.841c.011.048.019.1.029.146a3.147,3.147,0,0,1-2.552,3.647,3.258,3.258,0,0,1-.551.048Zm-.331-3.089-.019,0,.353-.062Zm196.847,1.544a3.105,3.105,0,0,1-.482-.037,3.163,3.163,0,0,1-2.637-3.6l.019-.118a3.147,3.147,0,1,1,6.2,1.095l-3.1-.547,3.1.552A3.122,3.122,0,0,1,204.786,126.412Zm-198.1-11a3.127,3.127,0,0,1-3.135-2.941l0-.041a3.147,3.147,0,1,1,3.327,2.977q-.1,0-.191,0Zm199.455-1.569c-.032,0-.064,0-.1,0a3.147,3.147,0,0,1-3.052-3.238c0-.03,0-.1.006-.134a3.147,3.147,0,1,1,3.141,3.373Zm.46-3.16h.037l-.5-.029ZM6.709,102.809c-.064,0-.126,0-.189,0a3.144,3.144,0,0,1-2.955-3.323c0-.03.006-.1.01-.134a3.147,3.147,0,1,1,3.135,3.461ZM205.9,101.227a3.165,3.165,0,1,1,3.135-3.466c0,.03.008.1.01.134a3.147,3.147,0,0,1-2.957,3.326C206.024,101.226,205.962,101.227,205.9,101.227ZM8.322,90.313a3.148,3.148,0,0,1-3.1-3.727c0-.024.016-.089.021-.113a3.148,3.148,0,1,1,3.081,3.84Zm195.754-1.572a3.157,3.157,0,1,1,3.073-3.843c0,.006.011.054.013.06a3.156,3.156,0,0,1-3.085,3.782ZM11.5,78.087a3.172,3.172,0,1,1,3.023-2.274c-.011.037-.035.113-.048.15A3.148,3.148,0,0,1,11.5,78.087Zm-.269-3.24.269.092Zm189.478,1.739a3.163,3.163,0,0,1-2.968-2.08l-.032-.092a3.147,3.147,0,0,1,5.953-2.046l-2.977,1.023,2.979-1.015a3.143,3.143,0,0,1-2.955,4.21ZM16.212,66.38a3.148,3.148,0,0,1-2.831-4.519l2.832,1.372-2.829-1.381a3.147,3.147,0,0,1,5.7,2.675l-.037.076a3.148,3.148,0,0,1-2.834,1.777Zm179.621-1.443a3.145,3.145,0,0,1-2.778-1.666c-.025-.049-.051-.1-.075-.148a3.146,3.146,0,1,1,2.853,1.814Zm.212-3.3-.232.113Zm-175.8-2.867a3.146,3.146,0,0,1-2.735-4.694c.029-.049.057-.1.086-.145a3.147,3.147,0,1,1,2.649,4.839ZM189.53,54a3.163,3.163,0,1,1,2.578-4.949c.008.014.041.064.051.078A3.146,3.146,0,0,1,189.53,54ZM27.3,48.309a3.148,3.148,0,0,1-2.482-5.079l.027-.033a3.146,3.146,0,1,1,4.966,3.864l-.025.033A3.141,3.141,0,0,1,27.3,48.309Zm154.6-4.349a3.167,3.167,0,0,1-2.377-1.069l-.072-.084a3.147,3.147,0,1,1,4.8-4.066l-2.4,2.032,2.408-2.027a3.141,3.141,0,0,1-2.36,5.215ZM35.625,38.815A3.147,3.147,0,0,1,33.4,33.443l2.226,2.225L33.4,33.438a3.147,3.147,0,1,1,4.521,4.379l-.075.076a3.136,3.136,0,0,1-2.225.921Zm137.408-3.862A3.142,3.142,0,0,1,171,34.208c-.033-.029-.1-.086-.129-.115a3.148,3.148,0,1,1,2.161.859Zm.118-3.337-.148.161ZM45.085,30.455a3.146,3.146,0,0,1-1.933-5.63l.032-.025a3.147,3.147,0,0,1,3.865,4.968l-.033.025a3.128,3.128,0,0,1-1.93.662Zm118.026-3.3a3.195,3.195,0,0,1-2.651-4.949,3.164,3.164,0,0,1,4.385-.827l.1.067a3.148,3.148,0,0,1-1.832,5.709ZM55.524,23.361A3.147,3.147,0,0,1,53.93,17.5l1.593,2.716-1.58-2.723a3.147,3.147,0,0,1,3.235,5.4c-.01.006-.056.032-.064.038a3.136,3.136,0,0,1-1.59.431Zm96.767-2.708a3.123,3.123,0,0,1-1.368-.317c-.049-.024-.1-.049-.146-.075a3.144,3.144,0,1,1,1.515.391Zm.081-3.386-.116.218Zm-85.592.376a3.147,3.147,0,0,1-1.3-6.013c.049-.022.1-.045.15-.064a3.147,3.147,0,1,1,1.152,6.077Zm73.971-2.088a3.155,3.155,0,0,1-1.025-.172c-.027-.008-.094-.033-.121-.043a3.15,3.15,0,1,1,1.146.215Zm.164-3.706-.2.544Zm-62.263,1.54a3.184,3.184,0,1,1,.98-.156l-.15.045a3.2,3.2,0,0,1-.831.111ZM78.575,9.95l.08.29Zm50.083,2.008a3.136,3.136,0,0,1-.638-.065l-.146-.033a3.146,3.146,0,1,1,.785.1Zm.033-3.474-.078.317ZM90.972,10.656a3.187,3.187,0,1,1,.609-.059c-.035.008-.111.019-.146.024A3.04,3.04,0,0,1,90.972,10.656Zm-.048-3.513.053.366ZM116.2,9.926a2.977,2.977,0,0,1-.334-.018,3.147,3.147,0,0,1,.565-6.268l.134.013a3.147,3.147,0,0,1-.364,6.273ZM103.585,9.49a3.165,3.165,0,0,1-3.165-3.054A3.13,3.13,0,0,1,103.452,3.2l.041,0,.094,0a3.147,3.147,0,0,1,.091,6.293c-.032,0-.064,0-.094,0Zm0,0" transform="translate(-2.101 -1.893)" fill="#a7c7d3"/>
  <path id="Path_247" data-name="Path 247" d="M232.38,185.033,227,184.621a1.727,1.727,0,0,1-1.532-1.241,33.485,33.485,0,0,0-2.681-6.6,1.73,1.73,0,0,1,.236-1.959l3.62-4.086a4.145,4.145,0,0,0-.172-5.678l-5.547-5.542a4.137,4.137,0,0,0-5.627-.215l-4.091,3.509a1.727,1.727,0,0,1-1.959.205,33.986,33.986,0,0,0-6.567-2.782,1.726,1.726,0,0,1-1.216-1.548l-.333-5.442A4.143,4.143,0,0,0,197,149.347h-7.837a4.143,4.143,0,0,0-4.134,3.825l-.411,5.375a1.72,1.72,0,0,1-1.238,1.528,33.939,33.939,0,0,0-7.083,2.937,1.729,1.729,0,0,1-1.96-.205l-4.091-3.509a4.138,4.138,0,0,0-5.627.215l-5.547,5.542a4.146,4.146,0,0,0-.172,5.678l3.622,4.086a1.732,1.732,0,0,1,.235,1.959,33.487,33.487,0,0,0-2.681,6.6,1.727,1.727,0,0,1-1.532,1.241l-5.375.412a4.143,4.143,0,0,0-3.827,4.132V197a4.147,4.147,0,0,0,3.894,4.137l5.442.331a1.724,1.724,0,0,1,1.548,1.217,34.033,34.033,0,0,0,2.783,6.565,1.73,1.73,0,0,1-.207,1.96l-3.507,4.091a4.138,4.138,0,0,0,.213,5.627l5.544,5.547a4.145,4.145,0,0,0,5.676.172l4.086-3.622a1.732,1.732,0,0,1,1.96-.234,33.641,33.641,0,0,0,6.6,2.681,1.726,1.726,0,0,1,1.241,1.531l.411,5.375a4.144,4.144,0,0,0,4.134,3.827H197a4.144,4.144,0,0,0,4.137-3.894l.333-5.442a1.723,1.723,0,0,1,1.213-1.548,33.633,33.633,0,0,0,6.1-2.53,1.731,1.731,0,0,1,1.956.235l4.086,3.62a4.145,4.145,0,0,0,5.678-.172l5.542-5.547a4.138,4.138,0,0,0,.215-5.627l-3.509-4.091a1.727,1.727,0,0,1-.205-1.959,33.985,33.985,0,0,0,2.782-6.567,1.73,1.73,0,0,1,1.548-1.217l5.442-.331A4.144,4.144,0,0,0,236.2,197v-7.839a4.138,4.138,0,0,0-3.824-4.132Zm-20.2,8.757a19.432,19.432,0,1,1-20.417-20.417,19.5,19.5,0,0,1,20.417,20.417Zm0,0" transform="translate(-88.505 -88.509)" fill="#a7c7d3"/>
  <path id="Path_248" data-name="Path 248" d="M62.094,31a30.89,30.89,0,0,1-9.2,22.034v0A31,31,0,1,1,62.094,31Zm0,0" transform="translate(-0.055 0)" fill="#fce6a9"/>
  <path id="Path_249" data-name="Path 249" d="M67.648,0a31.072,31.072,0,0,0-5.875.563A31,31,0,0,1,77.7,53.033v0a30.934,30.934,0,0,1-15.928,8.4,31,31,0,0,0,27.677-8.4v0A31,31,0,0,0,67.648,0Zm0,0" transform="translate(-36.609 0)" fill="#fdb659"/>
  <path id="Path_250" data-name="Path 250" d="M66.37,119.347v0a30.993,30.993,0,0,1-43.541.059,9.243,9.243,0,0,1,2.84-4.707,11.041,11.041,0,0,1,7.49-2.807H56.052a11.049,11.049,0,0,1,7.493,2.807,9.263,9.263,0,0,1,2.824,4.645Zm0,0" transform="translate(-13.529 -66.313)" fill="#ff8812"/>
  <path id="Path_251" data-name="Path 251" d="M89.45,120.259a9.263,9.263,0,0,0-2.824-4.645,10.5,10.5,0,0,0-3.717-2.18,31.074,31.074,0,0,1-5.207,6.825v0a30.923,30.923,0,0,1-15.928,8.4q1.423.274,2.887.417c.076.008.154.011.231.018.411.037.823.07,1.24.091.5.024,1.009.038,1.518.038a30.9,30.9,0,0,0,21.8-8.964Zm0,0" transform="translate(-36.609 -67.226)" fill="#e07409"/>
  <path id="Path_252" data-name="Path 252" d="M70.93,53.034l-3.491,2.129a4.032,4.032,0,0,1-4.195,0l-3.491-2.129a4.038,4.038,0,0,1-1.937-3.451V40.234a4.652,4.652,0,0,1,4.648-4.656h5.754a4.652,4.652,0,0,1,4.648,4.656v9.349a4.038,4.038,0,0,1-1.937,3.451Zm0,0" transform="translate(-34.264 -21.085)" fill="#fff"/>
  <path id="Path_253" data-name="Path 253" d="M421.8,390.725a30.886,30.886,0,0,1-9.2,22.032v0a31,31,0,1,1,9.2-22.037Zm0,0" transform="translate(-213.234 -213.188)" fill="#fce6a9"/>
  <path id="Path_254" data-name="Path 254" d="M427.355,359.727a31.073,31.073,0,0,0-5.875.563,30.994,30.994,0,0,1,15.928,52.468v0a30.934,30.934,0,0,1-15.928,8.4,31,31,0,0,0,27.677-8.4v0a31,31,0,0,0-21.8-53.032Zm0,0" transform="translate(-249.786 -213.188)" fill="#fdb659"/>
  <path id="Path_255" data-name="Path 255" d="M426.077,479.069v0a30.993,30.993,0,0,1-43.541.059,9.237,9.237,0,0,1,2.84-4.707,11.042,11.042,0,0,1,7.49-2.809h22.893a11.05,11.05,0,0,1,7.493,2.809A9.266,9.266,0,0,1,426.077,479.069Zm0,0" transform="translate(-226.705 -279.499)" fill="#ff8812"/>
  <path id="Path_256" data-name="Path 256" d="M449.157,479.983a9.266,9.266,0,0,0-2.824-4.643,10.486,10.486,0,0,0-3.717-2.18,31.073,31.073,0,0,1-5.207,6.825v0a30.935,30.935,0,0,1-15.928,8.4q1.423.272,2.887.417c.076.008.154.011.231.018.412.037.824.07,1.24.091.5.024,1.009.038,1.518.038a30.9,30.9,0,0,0,21.8-8.964Zm0,0" transform="translate(-249.786 -280.413)" fill="#e07409"/>
  <path id="Path_257" data-name="Path 257" d="M430.637,412.76l-3.491,2.129a4.032,4.032,0,0,1-4.195,0l-3.491-2.129a4.042,4.042,0,0,1-1.937-3.451V399.96a4.652,4.652,0,0,1,4.648-4.656h5.754a4.652,4.652,0,0,1,4.648,4.656v9.349A4.042,4.042,0,0,1,430.637,412.76Zm0,0" transform="translate(-247.441 -234.273)" fill="#fff"/>
  <path id="Path_258" data-name="Path 258" d="M421.725,31a30.89,30.89,0,0,1-9.2,22.034v0A31,31,0,1,1,421.725,31Zm0,0" transform="translate(-213.188 0)" fill="#fce6a9"/>
  <path id="Path_259" data-name="Path 259" d="M426.668,0a31.062,31.062,0,0,0-6.293.641,31,31,0,0,1,15.508,52.392v0a30.929,30.929,0,0,1-15.507,8.321,31.019,31.019,0,0,0,28.093-8.321v0A31,31,0,0,0,426.668,0Zm0,0" transform="translate(-249.131 0)" fill="#fdb659"/>
  <path id="Path_260" data-name="Path 260" d="M426,119.345v0a30.995,30.995,0,0,1-43.54.059,9.226,9.226,0,0,1,2.84-4.709,11.044,11.044,0,0,1,7.488-2.807h22.893a11.056,11.056,0,0,1,7.493,2.807A9.274,9.274,0,0,1,426,119.345Zm0,0" transform="translate(-226.662 -66.311)" fill="#ff8812"/>
  <path id="Path_261" data-name="Path 261" d="M445.648,115.287a10.611,10.611,0,0,0-4.425-2.4,31.071,31.071,0,0,1-5.339,7.049v0a30.924,30.924,0,0,1-15.505,8.321q1.5.31,3.06.474l.041,0c.468.048.94.083,1.415.11.059,0,.118.01.175.013.53.027,1.065.041,1.6.041a30.9,30.9,0,0,0,21.8-8.964v0a9.263,9.263,0,0,0-2.824-4.645Zm0,0" transform="translate(-249.133 -66.899)" fill="#e07409"/>
  <path id="Path_262" data-name="Path 262" d="M430.561,53.036l-3.491,2.129a4.035,4.035,0,0,1-4.2,0l-3.491-2.129a4.037,4.037,0,0,1-1.937-3.45v-9.35a4.651,4.651,0,0,1,4.648-4.654h5.754a4.652,4.652,0,0,1,4.65,4.654v9.35A4.041,4.041,0,0,1,430.561,53.036Zm0,0" transform="translate(-247.395 -21.087)" fill="#fff"/>
  <path id="Path_263" data-name="Path 263" d="M62,390.725a30.88,30.88,0,0,1-9.2,22.032v0A31,31,0,1,1,62,390.725Zm0,0" transform="translate(0 -213.188)" fill="#fce6a9"/>
  <path id="Path_264" data-name="Path 264" d="M66.942,359.727a31.064,31.064,0,0,0-6.293.641,31,31,0,0,1,15.508,52.39v0a30.954,30.954,0,0,1-15.507,8.321,31.037,31.037,0,0,0,28.094-8.321v0a31,31,0,0,0-21.8-53.032Zm0,0" transform="translate(-35.943 -213.188)" fill="#fdb659"/>
  <path id="Path_265" data-name="Path 265" d="M66.274,479.069v0a30.995,30.995,0,0,1-43.54.059,9.226,9.226,0,0,1,2.84-4.709,11.045,11.045,0,0,1,7.49-2.807H55.956a11.06,11.06,0,0,1,7.495,2.807,9.278,9.278,0,0,1,2.823,4.645Zm0,0" transform="translate(-13.473 -279.499)" fill="#ff8812"/>
  <path id="Path_266" data-name="Path 266" d="M85.923,475.012a10.613,10.613,0,0,0-4.427-2.4,31.1,31.1,0,0,1-5.337,7.048v0a30.954,30.954,0,0,1-15.507,8.321q1.5.31,3.06.473l.041.006c.468.048.94.081,1.415.108.059,0,.118.011.177.013.53.029,1.063.041,1.6.041a30.9,30.9,0,0,0,21.8-8.962v0a9.278,9.278,0,0,0-2.823-4.645Zm0,0" transform="translate(-35.945 -280.087)" fill="#e07409"/>
  <path id="Path_267" data-name="Path 267" d="M70.834,412.763l-3.491,2.129a4.035,4.035,0,0,1-4.2,0l-3.491-2.129a4.045,4.045,0,0,1-1.937-3.451v-9.349a4.651,4.651,0,0,1,4.65-4.654h5.754a4.652,4.652,0,0,1,4.648,4.654v9.349a4.045,4.045,0,0,1-1.937,3.451Zm0,0" transform="translate(-34.206 -234.275)" fill="#fff"/>
  <path id="Path_268" data-name="Path 268" d="M213.917,183.047A28.685,28.685,0,1,0,242.6,211.734,28.686,28.686,0,0,0,213.917,183.047Zm19.533,30.714a19.432,19.432,0,1,1-20.417-20.417A19.5,19.5,0,0,1,233.45,213.761Zm0,0" transform="translate(-109.775 -108.481)" fill="#89b4c9"/>
</svg>
