<svg id="cup" xmlns="http://www.w3.org/2000/svg" width="196.035" height="236.84" viewBox="0 0 196.035 236.84">
  <path id="Path_36" data-name="Path 36" d="M36.7,72.765a10.343,10.343,0,0,1-1.937-.181A11.04,11.04,0,0,1,26.1,63.8a3.616,3.616,0,1,1,7.1-1.349,3.755,3.755,0,0,0,2.906,3.027,3.654,3.654,0,0,0,3.5-1.37c.975-1.356.572-3.775-.025-5.06-1.175-2.531-4.861-2.977-10.778-3.5-6.6-.58-14.812-1.3-21.036-7.347C-.267,40.4-2.394,26.512,2.923,16.59c4-7.454,11.7-12.427,19.625-12.673,6.679-.207,14.947,2.561,17.33,9.129,1.375,3.787,1.044,9.375-2.931,12.687-3.8,3.167-8.489,2.348-9.836,2.022a3.615,3.615,0,0,1,1.7-7.027c.09.021,2.217.521,3.5-.549s1.23-3.381.764-4.666c-1.148-3.163-6.826-4.482-10.309-4.368C16.643,11.334,11.587,15.732,9.3,20c-3.746,6.988-2.139,17.527,3.511,23.014,4.379,4.255,10.607,4.8,16.63,5.331,6.74.592,13.708,1.2,16.7,7.654,1.485,3.2,2.2,8.343-.661,12.327A10.916,10.916,0,0,1,36.7,72.765Zm0,0" transform="translate(0 -2.134)" fill="#ff7e09"/>
  <path id="Path_37" data-name="Path 37" d="M260.612,72.765a10.916,10.916,0,0,1-8.783-4.434c-2.864-3.984-2.146-9.13-.663-12.327,3-6.451,9.965-7.062,16.706-7.654,6.022-.528,12.249-1.076,16.63-5.331,5.648-5.487,7.255-16.026,3.509-23.014-2.29-4.273-7.344-8.671-13.476-8.861-3.473-.112-9.159,1.207-10.307,4.368-.466,1.285-.537,3.582.764,4.666,1.285,1.072,3.413.571,3.5.549a3.615,3.615,0,0,1,1.7,7.027c-1.347.326-6.034,1.145-9.834-2.02-3.977-3.314-4.306-8.9-2.931-12.689,2.382-6.568,10.647-9.336,17.328-9.129,7.927.246,15.631,5.221,19.623,12.671,5.32,9.924,3.192,23.811-4.843,31.618-6.224,6.047-14.438,6.768-21.038,7.347-5.917.519-9.6.966-10.778,3.495-.6,1.287-1,3.706-.025,5.061a3.651,3.651,0,0,0,3.5,1.37,3.759,3.759,0,0,0,2.908-3.027,3.615,3.615,0,1,1,7.1,1.349,11.038,11.038,0,0,1-8.662,8.783,10.507,10.507,0,0,1-1.937.181Zm0,0" transform="translate(-136.508 -2.134)" fill="#ff7e09"/>
  <path id="Path_38" data-name="Path 38" d="M166.061,0H84.411a2.537,2.537,0,0,0-2.536,2.536V24.78a84.4,84.4,0,0,0,36.961,69.861,10.577,10.577,0,0,0,11.8.078A84.416,84.416,0,0,0,168.6,24.183V2.535A2.538,2.538,0,0,0,166.061,0Zm0,0" transform="translate(-44.73 0.001)" fill="#fdd559"/>
  <path id="Path_39" data-name="Path 39" d="M205.055,0H183.869A2.535,2.535,0,0,1,186.4,2.536V24.183a84.345,84.345,0,0,1-33.152,67.1c1.489,1.168,3.013,2.293,4.579,3.36a10.574,10.574,0,0,0,11.794.078,84.412,84.412,0,0,0,37.965-70.537V2.535A2.535,2.535,0,0,0,205.055,0Zm0,0" transform="translate(-83.724 0.001)" fill="#fdc259"/>
  <path id="Path_40" data-name="Path 40" d="M161.156,206.668H175.94v38.451H161.156Zm0,0" transform="translate(-88.043 -110.703)" fill="#ff7e09"/>
  <path id="Path_41" data-name="Path 41" d="M160.406,199.217H141.091A12.518,12.518,0,0,1,128.574,186.7a1.979,1.979,0,0,1,1.978-1.978h40.393a1.977,1.977,0,0,1,1.978,1.978,12.52,12.52,0,0,1-12.517,12.517Zm0,0" transform="translate(-70.243 -99.164)" fill="#fdb659"/>
  <path id="Path_42" data-name="Path 42" d="M192.589,184.723H178.731a1.977,1.977,0,0,1,1.976,1.978,12.516,12.516,0,0,1-12.515,12.517H182.05A12.516,12.516,0,0,0,194.565,186.7,1.977,1.977,0,0,0,192.589,184.723Zm0,0" transform="translate(-91.887 -99.165)" fill="#fd9e28"/>
  <path id="Path_43" data-name="Path 43" d="M172.921,296.847H128.574v-1A14.426,14.426,0,0,1,143,281.422H158.5a14.425,14.425,0,0,1,14.426,14.426Zm0,0" transform="translate(-70.243 -151.064)" fill="#fdb659"/>
  <path id="Path_44" data-name="Path 44" d="M178.647,281.422H165.461a14.426,14.426,0,0,1,14.426,14.426v1h13.187v-1A14.425,14.425,0,0,0,178.647,281.422Zm0,0" transform="translate(-90.395 -151.064)" fill="#fd9e28"/>
  <path id="Path_45" data-name="Path 45" d="M171.053,340.768H108.387V324.238a8.817,8.817,0,0,1,8.817-8.817h45.031a8.817,8.817,0,0,1,8.817,8.817v16.529Zm0,0" transform="translate(-59.214 -169.171)" fill="#38627c"/>
  <path id="Path_46" data-name="Path 46" d="M211.6,315.422H198.742a8.817,8.817,0,0,1,8.818,8.817v11.991h12.854V324.239A8.815,8.815,0,0,0,211.6,315.422Zm0,0" transform="translate(-108.577 -169.238)" fill="#2f5066"/>
  <path id="Path_47" data-name="Path 47" d="M151.759,372.07a7.207,7.207,0,0,1-5.113-2.118l-10.284-13.036a15.987,15.987,0,0,0-12.551-6.084H61.053a13.7,13.7,0,0,1-11-5.529L22.43,308.12a7.23,7.23,0,0,1,.253-10.466,7.368,7.368,0,0,1,10.117.386l27.483,27.483h61.8A36.95,36.95,0,0,1,147.961,336.1l8.911,8.742a7.228,7.228,0,0,1,0,10.226c-1.411,1.412-3.261,17-5.113,17Zm0,0" transform="translate(-11.097 -157.06)" fill="#fedfc5"/>
  <path id="Path_48" data-name="Path 48" d="M59.874,325.58h1.17L33.57,298.108a7.483,7.483,0,0,0-10.241-.291,7.23,7.23,0,0,0-1.629,2.295L38.186,316.6a30.67,30.67,0,0,0,21.688,8.983Zm0,0" transform="translate(-11.855 -158.654)" fill="#fecbaa"/>
  <path id="Path_49" data-name="Path 49" d="M262.715,380.605l-8.911-8.742a36.95,36.95,0,0,0-25.881-10.578H214.05a36.953,36.953,0,0,1,25.881,10.578l8.911,8.742a7.228,7.228,0,0,1,0,10.225c-.624.624-1.333,4.018-2.091,7.61l5.738,7.273a7.208,7.208,0,0,0,5.115,2.118c1.85,0,3.7-15.588,5.113-17a7.23,7.23,0,0,0,0-10.225Zm0,0" transform="translate(-116.94 -192.821)" fill="#fecbaa"/>
  <path id="Path_50" data-name="Path 50" d="M266.259,413.253l28.669-22.189a2.646,2.646,0,0,1,3.713.471l13.135,16.97-32.854,25.431-13.135-16.969a2.649,2.649,0,0,1,.473-3.714Zm0,0" transform="translate(-144.902 -208.787)" fill="#ffb14c"/>
  <path id="Path_51" data-name="Path 51" d="M309.254,391.535a2.646,2.646,0,0,0-3.713-.471l-6.045,4.679a16.141,16.141,0,0,1-2.883,22.641l-11.953,9.253,4.875,6.3,32.854-25.431Zm0,0" transform="translate(-155.516 -208.787)" fill="#fd9e28"/>
  <path id="Path_52" data-name="Path 52" d="M328.26,430.176l-32.854,25.431,7.764,10.032a4.286,4.286,0,0,0,3.385,1.659h49.708a1.156,1.156,0,0,0,.895-1.889Zm0,0" transform="translate(-161.387 -230.458)" fill="#4f7693"/>
</svg>
