<svg id="finance" xmlns="http://www.w3.org/2000/svg" width="173.118" height="208.568" viewBox="0 0 173.118 208.568">
  <path id="Path_77" data-name="Path 77" d="M176.461,60.515A60.516,60.516,0,1,1,115.944,0a60.517,60.517,0,0,1,60.517,60.515Zm0,0" transform="translate(-33.053 0)" fill="#fdd559"/>
  <path id="Path_78" data-name="Path 78" d="M190.555,60.517a60.469,60.469,0,0,1-27.672,50.831,60.225,60.225,0,0,0,9.684-32.85q0-2.191-.154-4.347A44.537,44.537,0,0,0,116.4,18.137c-1.434-.105-2.887-.154-4.347-.154a60.236,60.236,0,0,0-32.845,9.684,60.521,60.521,0,0,1,111.348,32.85Zm0,0" transform="translate(-47.145 0)" fill="#fdc259"/>
  <path id="Path_79" data-name="Path 79" d="M228.655,83.806A44.245,44.245,0,0,1,226.52,97.44a60.52,60.52,0,0,0-56.012-56.014,44.541,44.541,0,0,1,58.148,42.38Zm0,0" transform="translate(-101.254 -23.289)" fill="#ff8812"/>
  <path id="Path_80" data-name="Path 80" d="M181.609,100.537A44.513,44.513,0,1,1,125.6,44.523a60.52,60.52,0,0,1,56.012,56.014Zm0,0" transform="translate(-56.342 -26.386)" fill="#fdb659"/>
  <path id="Path_81" data-name="Path 81" d="M198.826,113.839a14.129,14.129,0,0,0-12.138-13.97,3.182,3.182,0,0,0-.934-.14,7.8,7.8,0,1,1,6.467-12.152,3.157,3.157,0,0,0,5.232-3.534,14.1,14.1,0,0,0-9.476-6.037V74.653a3.157,3.157,0,1,0-6.314,0V78.43a14.108,14.108,0,0,0,2.121,27.473,3.164,3.164,0,0,0,.932.14,7.8,7.8,0,1,1-6.454,12.17,3.157,3.157,0,0,0-5.222,3.548,14.113,14.113,0,0,0,8.623,5.848v3.51a3.157,3.157,0,0,0,6.314,0v-3.555a14.131,14.131,0,0,0,10.849-13.726Zm0,0" transform="translate(-101.927 -42.371)" fill="#fff"/>
  <path id="Path_82" data-name="Path 82" d="M112.853,274.466A11.442,11.442,0,0,1,101.417,285.9H78.926a2.9,2.9,0,0,1-1.133-.232L71.926,283.2l-1.766-.74,3.208,16.415-19.415,2.244L44.94,276.794a16.015,16.015,0,0,1,2.56-15.3l.13-.164a5.88,5.88,0,0,1,6.322-1.97L75.23,271.3l.01,0,5.623,3.157Zm0,0" transform="translate(-26.294 -153.554)" fill="#fecbaa"/>
  <path id="Path_83" data-name="Path 83" d="M70.161,282.463l3.208,16.415-9.788,5.612-9.627-3.369-9.013-24.329a16.015,16.015,0,0,1,2.56-15.3l.13-.164a5.88,5.88,0,0,1,6.322-1.97L75.231,271.3l.01,0L71.927,283.2Zm0,0" transform="translate(-26.295 -153.555)" fill="#ffb14c"/>
  <path id="Path_84" data-name="Path 84" d="M87.811,356.746l5.4,26.157a5.682,5.682,0,0,0,1.871,3.17l15.384,13.166a1.389,1.389,0,0,1-.019,2.124l-4,3.3a1.746,1.746,0,0,1-1.98.169L85.722,394.094c-2-1.184-3.821-2.083-4.731-4.061l-12.6-31.042Zm0,0" transform="translate(-40.737 -211.422)" fill="#38627c"/>
  <path id="Path_85" data-name="Path 85" d="M62.82,356.746l.3,1.345A20.167,20.167,0,0,1,53.5,380.013l-11.266,6.473a7.268,7.268,0,0,0-3.617,6.958l1.209,13.295a.539.539,0,0,1-.538.587H31.754a.538.538,0,0,1-.524-.415L26.538,386.9a5.727,5.727,0,0,1,.531-4.858L43.4,358.991Zm0,0" transform="translate(-15.746 -211.422)" fill="#4f7693"/>
  <path id="Path_86" data-name="Path 86" d="M3.773,249.925l6.663,3.848a6.544,6.544,0,0,0,8.941-2.4L20.9,248.74a6.546,6.546,0,0,0-2.395-8.941l-6.664-3.846A6.546,6.546,0,0,0,2.9,238.347l-1.521,2.638a6.544,6.544,0,0,0,2.395,8.94Zm0,0" transform="translate(-0.5 -139.314)" fill="#fecbaa"/>
  <path id="Path_87" data-name="Path 87" d="M36.806,502.814H24.286a3.157,3.157,0,0,1,0-6.314h12.52a3.157,3.157,0,0,1,0,6.314Zm0,0" transform="translate(-12.726 -294.246)" fill="#2f5066"/>
  <path id="Path_88" data-name="Path 88" d="M163.542,487.732a3.157,3.157,0,0,1-2.08-5.533l10.087-8.827a3.157,3.157,0,1,1,4.158,4.751l-10.087,8.827A3.15,3.15,0,0,1,163.542,487.732Zm0,0" transform="translate(-95.254 -280.076)" fill="#2f5066"/>
  <path id="Path_89" data-name="Path 89" d="M88.625,308.23l7.967,3.348L99.8,327.993Zm0,0" transform="translate(-52.727 -182.669)" fill="#fd9e28"/>
  <path id="Path_90" data-name="Path 90" d="M212.988,274.466A11.439,11.439,0,0,0,224.424,285.9h22.489a2.893,2.893,0,0,0,1.133-.232l5.869-2.466,1.765-.74-3.208,16.415,19.416,2.244,9.011-24.33a16.012,16.012,0,0,0-2.559-15.3l-.13-.164a5.881,5.881,0,0,0-6.322-1.97L250.61,271.3l-.008,0-5.623,3.157H212.988Zm0,0" transform="translate(-126.429 -153.554)" fill="#fecbaa"/>
  <path id="Path_91" data-name="Path 91" d="M310.4,282.462l-3.208,16.415,9.568,5.587,9.848-3.343,9.013-24.33a16.017,16.017,0,0,0-2.56-15.3l-.13-.165a5.887,5.887,0,0,0-6.322-1.97L305.332,271.3l-.008,0,3.313,11.9Zm0,0" transform="translate(-181.151 -153.554)" fill="#ffb14c"/>
  <path id="Path_92" data-name="Path 92" d="M276.253,356.746l-5.4,26.157a5.683,5.683,0,0,1-1.871,3.17L253.6,399.239a1.387,1.387,0,0,0,.019,2.124l4,3.3a1.746,1.746,0,0,0,1.98.169l18.743-10.736c2-1.184,3.821-2.083,4.732-4.061l12.595-31.042Zm0,0" transform="translate(-150.21 -211.422)" fill="#38627c"/>
  <path id="Path_93" data-name="Path 93" d="M308.752,356.746l-.3,1.345a20.164,20.164,0,0,0,9.624,21.923l11.266,6.473a7.267,7.267,0,0,1,3.615,6.958l-1.208,13.295a.539.539,0,0,0,.536.587h7.535a.538.538,0,0,0,.525-.415l4.691-20.016a5.732,5.732,0,0,0-.53-4.858l-16.336-23.046Zm0,0" transform="translate(-182.709 -211.422)" fill="#4f7693"/>
  <path id="Path_94" data-name="Path 94" d="M391.246,249.925l-6.663,3.848a6.545,6.545,0,0,1-8.941-2.4l-1.523-2.637a6.548,6.548,0,0,1,2.4-8.941l6.663-3.846a6.545,6.545,0,0,1,8.941,2.395l1.523,2.638A6.543,6.543,0,0,1,391.246,249.925Zm0,0" transform="translate(-221.402 -139.314)" fill="#fecbaa"/>
  <path id="Path_95" data-name="Path 95" d="M361.77,502.814h12.518a3.157,3.157,0,0,0,0-6.314H361.77a3.157,3.157,0,0,0,0,6.314Zm0,0" transform="translate(-212.732 -294.246)" fill="#2f5066"/>
  <path id="Path_96" data-name="Path 96" d="M238.57,487.732a3.158,3.158,0,0,0,2.081-5.533l-10.089-8.827a3.156,3.156,0,1,0-4.156,4.751l10.087,8.827A3.146,3.146,0,0,0,238.57,487.732Zm0,0" transform="translate(-133.742 -280.076)" fill="#2f5066"/>
  <path id="Path_97" data-name="Path 97" d="M321.091,308.23l-7.969,3.348-3.208,16.415Zm0,0" transform="translate(-183.871 -182.669)" fill="#fd9e28"/>
</svg>
