<svg id="help" xmlns="http://www.w3.org/2000/svg" width="208.569" height="204.703" viewBox="0 0 208.569 204.703">
  <path id="Path_98" data-name="Path 98" d="M300.307,184.6l-8.045-.614a21,21,0,0,0-1.641-4.056l5.388-6.085a1.655,1.655,0,0,0-.068-2.266l-5.388-5.388a1.655,1.655,0,0,0-2.248-.086l-6.122,5.253a20.993,20.993,0,0,0-4.029-1.709l-.493-8.109a1.654,1.654,0,0,0-1.652-1.555H268.39a1.654,1.654,0,0,0-1.65,1.529l-.614,8.044a21.024,21.024,0,0,0-4.349,1.8l-6.122-5.253a1.654,1.654,0,0,0-2.247.086l-5.388,5.388a1.654,1.654,0,0,0-.07,2.266l-4.3,10.755a1.655,1.655,0,0,0-1.528,1.65v7.619a1.654,1.654,0,0,0,1.553,1.652l8.111.493a20.951,20.951,0,0,0,1.709,4.029l-5.254,6.123a1.656,1.656,0,0,0,.086,2.247l5.388,5.388a1.654,1.654,0,0,0,2.268.068l6.085-5.388a21.028,21.028,0,0,0,4.055,1.642l.616,8.044a1.654,1.654,0,0,0,1.649,1.529h7.62a1.656,1.656,0,0,0,1.652-1.555l.493-8.109a21,21,0,0,0,3.736-1.55l6.085,5.388a1.654,1.654,0,0,0,2.266-.07l5.39-5.388a1.654,1.654,0,0,0,.084-2.247l-5.253-6.122a21.036,21.036,0,0,0,1.709-4.029l8.111-.493a1.656,1.656,0,0,0,1.553-1.652v-7.62a1.655,1.655,0,0,0-1.528-1.65ZM271.98,198.589a8.753,8.753,0,1,1,8.753-8.753A8.753,8.753,0,0,1,271.98,198.589Zm0,0" transform="translate(-143.493 -94.811)" fill="#89b4c9"/>
  <path id="Path_99" data-name="Path 99" d="M161.581,78.525l-8.13-.621a33.512,33.512,0,0,0-3.536-8.714l5.468-6.176a2.386,2.386,0,0,0-.1-3.268l-7.77-7.77a2.386,2.386,0,0,0-3.24-.124l-6.188,5.312a33.494,33.494,0,0,0-8.663-3.669l-.5-8.227a2.385,2.385,0,0,0-2.381-2.24H115.552a2.387,2.387,0,0,0-2.379,2.2l-.621,8.13a33.568,33.568,0,0,0-9.175,3.8l-6.19-5.31a2.386,2.386,0,0,0-3.24.124l-7.77,7.77a2.386,2.386,0,0,0-.1,3.268l5.468,6.176A33.458,33.458,0,0,0,88.011,77.9l-8.131.621a2.386,2.386,0,0,0-2.2,2.379V91.892a2.386,2.386,0,0,0,2.242,2.382l8.225.5a33.515,33.515,0,0,0,3.669,8.661l-5.31,6.19a2.384,2.384,0,0,0,.123,3.24l7.77,7.77a2.386,2.386,0,0,0,3.268.1l6.176-5.468a33.425,33.425,0,0,0,8.714,3.536l.621,8.131a2.387,2.387,0,0,0,2.379,2.2h10.989a2.386,2.386,0,0,0,2.381-2.242l.5-8.225a33.5,33.5,0,0,0,8.2-3.4l6.176,5.468a2.386,2.386,0,0,0,3.268-.1l7.77-7.77a2.388,2.388,0,0,0,.124-3.241l-5.312-6.188a33.483,33.483,0,0,0,3.669-8.661l8.227-.5a2.386,2.386,0,0,0,2.24-2.382V80.9a2.386,2.386,0,0,0-2.2-2.379Zm-40.85,26.822a19.264,19.264,0,1,1,19.264-19.265A19.265,19.265,0,0,1,120.73,105.347Zm0,0" transform="translate(-46.034 -25.5)" fill="#a7c7d3"/>
  <path id="Path_100" data-name="Path 100" d="M161.581,78.525l-8.13-.621a33.512,33.512,0,0,0-3.536-8.714l5.468-6.176a2.386,2.386,0,0,0-.1-3.268l-7.77-7.77a2.386,2.386,0,0,0-3.24-.124l-6.188,5.312a33.494,33.494,0,0,0-8.663-3.669l-.5-8.227a2.385,2.385,0,0,0-2.381-2.24H115.552a2.387,2.387,0,0,0-2.379,2.2l-.621,8.13a33.568,33.568,0,0,0-9.175,3.8l-6.19-5.31a2.386,2.386,0,0,0-3.24.124l-7.77,7.77a2.386,2.386,0,0,0-.1,3.268l5.468,6.176A33.458,33.458,0,0,0,88.011,77.9l-8.131.621a2.386,2.386,0,0,0-2.2,2.379V91.892a2.386,2.386,0,0,0,2.242,2.382l8.225.5a33.515,33.515,0,0,0,3.669,8.661l-5.31,6.19a2.384,2.384,0,0,0,.123,3.24l7.77,7.77a2.386,2.386,0,0,0,3.268.1l6.176-5.468a33.425,33.425,0,0,0,8.714,3.536l.621,8.131a2.387,2.387,0,0,0,2.379,2.2h10.989a2.386,2.386,0,0,0,2.381-2.242l.5-8.225a33.5,33.5,0,0,0,8.2-3.4l6.176,5.468a2.386,2.386,0,0,0,3.268-.1l7.77-7.77a2.388,2.388,0,0,0,.124-3.241l-5.312-6.188a33.483,33.483,0,0,0,3.669-8.661l8.227-.5a2.386,2.386,0,0,0,2.24-2.382V80.9a2.386,2.386,0,0,0-2.2-2.379Zm-40.85,26.822a19.264,19.264,0,1,1,19.264-19.265A19.265,19.265,0,0,1,120.73,105.347Zm0,0" transform="translate(-46.034 -25.5)" fill="#a7c7d3"/>
  <path id="Path_101" data-name="Path 101" d="M66.513,240.929a4.077,4.077,0,0,1-2.579-.586L45.294,228.4a7.95,7.95,0,0,0-10.254,1.437l-1.415,1.6a13.209,13.209,0,0,0-3.3,8.631l-.2,24.3,11.627.652,9.637-.939.251-18.764,10.66,5.927a4.086,4.086,0,0,0,2.482.484l15.6-1.921a11.519,11.519,0,0,0,10.114-11.435Zm0,0" transform="translate(-17.851 -134.613)" fill="#ffb14c"/>
  <path id="Path_102" data-name="Path 102" d="M83.216,255.494c-1.768,1.79-11.761,10.515-24.871,4.775L52.29,256.9a3.148,3.148,0,0,0-4.677,2.71,13.864,13.864,0,0,1-13.675,13.675l-3.757.051-.06,7.374,21.264-.286.251-18.762L62.3,267.59a4.086,4.086,0,0,0,2.482.484l15.6-1.921a11.52,11.52,0,0,0,10.114-11.435Zm0,0" transform="translate(-17.851 -150.956)" fill="#fd9e28"/>
  <path id="Path_103" data-name="Path 103" d="M51.385,317.824l21.7,22.572a6.232,6.232,0,0,1,.894,7.6L61.045,379.464H53.578l6.255-27.842a2.336,2.336,0,0,0-.28-2.239L30.121,318.11Zm0,0" transform="translate(-17.851 -188.355)" fill="#38627c"/>
  <path id="Path_104" data-name="Path 104" d="M18.613,318.11l21.264-.286-21.264,61.64H10.7Zm0,0" transform="translate(-6.343 -188.355)" fill="#4f7693"/>
  <path id="Path_105" data-name="Path 105" d="M43.368,185.876l-.673,7.118a6.083,6.083,0,0,0,5.485,6.628l2.817.266a6.081,6.081,0,0,0,6.628-5.483l.673-7.118a6.083,6.083,0,0,0-5.485-6.628L50,180.391a6.083,6.083,0,0,0-6.628,5.485Zm0,0" transform="translate(-25.286 -106.89)" fill="#fedfc5"/>
  <path id="Path_106" data-name="Path 106" d="M15.491,493.435H3.119a3.12,3.12,0,0,1,0-6.239H15.491a3.12,3.12,0,1,1,0,6.239Zm0,0" transform="translate(0 -288.731)" fill="#2f5066"/>
  <path id="Path_107" data-name="Path 107" d="M92.779,493.435H80.407a3.12,3.12,0,0,1,0-6.239H92.779a3.12,3.12,0,1,1,0,6.239Zm0,0" transform="translate(-45.804 -288.731)" fill="#2f5066"/>
  <path id="Path_108" data-name="Path 108" d="M410.425,218.716,370.573,197.07a14.678,14.678,0,0,0,6.531,16.438l20.055,12.186-.387,24.8,10.793,5.237,8.628,2.723v-30.04a11.032,11.032,0,0,0-5.768-9.7Zm0,0" transform="translate(-219.304 -116.792)" fill="#ffb14c"/>
  <path id="Path_109" data-name="Path 109" d="M391.226,230.023a11.481,11.481,0,0,0-5.517-9.99l-14.436-8.771q-.518-.315-1-.668a14.681,14.681,0,0,0,6.966,10.929Zm0,0" transform="translate(-219.436 -124.806)" fill="#fd9e28"/>
  <path id="Path_110" data-name="Path 110" d="M449.306,250.053l-.191-.1v15.168a9.671,9.671,0,0,1-13.338,8.949l-.121,7.767,19.421,7.959v-30.04a11.04,11.04,0,0,0-5.771-9.7Zm0,0" transform="translate(-258.187 -148.13)" fill="#fd9e28"/>
  <path id="Path_111" data-name="Path 111" d="M408.144,328.219l-17.715,24.626a6.355,6.355,0,0,0-1.162,4.363l2.995,28.849h7l1.816-23.049a6.342,6.342,0,0,1,2.013-4.158l24.47-22.672Zm0,0" transform="translate(-230.675 -194.516)" fill="#38627c"/>
  <path id="Path_112" data-name="Path 112" d="M453.123,336.178l-5.485,22.144a5.844,5.844,0,0,0,.5,4.128l12.413,23.608h-7.43l-19.068-22.2a7.009,7.009,0,0,1-1.688-4.877l1.335-30.764Zm0,0" transform="translate(-256.233 -194.516)" fill="#4f7693"/>
  <path id="Path_113" data-name="Path 113" d="M452.888,203.152l-3.259,6.363a6.081,6.081,0,0,0,2.641,8.187l2.517,1.291a6.084,6.084,0,0,0,8.187-2.641l3.26-6.363a6.084,6.084,0,0,0-2.642-8.187l-2.519-1.291A6.084,6.084,0,0,0,452.888,203.152Zm0,0" transform="translate(-266.071 -118.433)" fill="#fedfc5"/>
  <path id="Path_114" data-name="Path 114" d="M481.805,493.435H469.433a3.12,3.12,0,1,1,0-6.239h12.372a3.12,3.12,0,0,1,0,6.239Zm0,0" transform="translate(-276.355 -288.731)" fill="#2f5066"/>
  <path id="Path_115" data-name="Path 115" d="M392.463,493.435H380.091a3.12,3.12,0,0,1,0-6.239h12.372a3.12,3.12,0,0,1,0,6.239Zm0,0" transform="translate(-223.409 -288.731)" fill="#2f5066"/>
  <g id="Group_3" data-name="Group 3" transform="translate(11.854 0)">
    <path id="Path_116" data-name="Path 116" d="M358.029,144.631a3.118,3.118,0,0,1-2.785-1.709,35.386,35.386,0,0,0-31.7-19.48,3.12,3.12,0,0,1,0-6.239,41.6,41.6,0,0,1,37.269,22.9,3.12,3.12,0,0,1-2.78,4.53Zm0,0" transform="translate(-201.748 -69.459)" fill="#fce6a9"/>
    <path id="Path_117" data-name="Path 117" d="M394.166,162.363a3.106,3.106,0,0,1-.735-.088l-9.727-2.358a3.12,3.12,0,1,1,1.47-6.064l6.694,1.625,1.448-5.97a3.119,3.119,0,1,1,6.063,1.47l-2.182,9a3.122,3.122,0,0,1-3.031,2.385Zm0,0" transform="translate(-237.838 -87.191)" fill="#fce6a9"/>
    <path id="Path_118" data-name="Path 118" d="M41.062,40.655a3.119,3.119,0,0,1-2.885-4.306A58.46,58.46,0,0,1,92.426,0a3.12,3.12,0,0,1,0,6.239A52.238,52.238,0,0,0,43.949,38.721a3.122,3.122,0,0,1-2.887,1.933Zm0,0" transform="translate(-34.339 0)" fill="#fce6a9"/>
    <path id="Path_119" data-name="Path 119" d="M35.9,76.073a3.121,3.121,0,0,1-2.929-2.05L29.289,63.954a3.119,3.119,0,1,1,5.859-2.14l2.608,7.138,7.14-2.606a3.12,3.12,0,1,1,2.14,5.861L36.967,75.884a3.132,3.132,0,0,1-1.071.189Zm0,0" transform="translate(-29.098 -35.418)" fill="#fce6a9"/>
  </g>
</svg>
