<svg id="high-five" xmlns="http://www.w3.org/2000/svg" width="191.799" height="258.525" viewBox="0 0 191.799 258.525">
  <path id="Path_3" data-name="Path 3" d="M275.179,47.982a3.894,3.894,0,0,1-2.3-7.035,28.5,28.5,0,0,0,4.491-3.864c-1.564-.645-3.884-1.738-4.765-4.4-1.578-4.763,2.961-9.1,7.089-12.353a3.894,3.894,0,0,1,4.815,6.12,23.522,23.522,0,0,0-3.826,3.57c1.538.625,4.047,1.677,4.939,4.458,1.556,4.844-3.243,9.164-8.142,12.75a3.867,3.867,0,0,1-2.3.753Zm0,0" transform="translate(-134.304 -9.653)" fill="#69d998"/>
  <path id="Path_4" data-name="Path 4" d="M352.067,118.369a3.866,3.866,0,0,1-2.3-.753c-4.9-3.586-9.7-7.905-8.144-12.75.893-2.781,3.4-3.832,4.941-4.458a23.525,23.525,0,0,0-3.826-3.57,3.894,3.894,0,0,1,4.815-6.12c4.128,3.249,8.665,7.59,7.087,12.353-.88,2.661-3.2,3.753-4.763,4.4a28.4,28.4,0,0,0,4.491,3.864,3.894,3.894,0,0,1-2.3,7.035Zm-4.876-16.982h.006Zm0,0" transform="translate(-168.945 -44.499)" fill="#ffb8d5"/>
  <path id="Path_5" data-name="Path 5" d="M313.944,91.282a2.917,2.917,0,1,0-2.917,2.923A2.919,2.919,0,0,0,313.944,91.282Zm0,0" transform="translate(-152.535 -43.744)" fill="#fce6a9"/>
  <path id="Path_6" data-name="Path 6" d="M267.751,132.6a2.918,2.918,0,1,0-2.917,2.923A2.921,2.921,0,0,0,267.751,132.6Zm0,0" transform="translate(-129.666 -64.198)" fill="#83d9ff"/>
  <path id="Path_7" data-name="Path 7" d="M323.26,2.923a2.917,2.917,0,1,0-2.917,2.923A2.921,2.921,0,0,0,323.26,2.923Zm0,0" transform="translate(-157.147)" fill="#83d9ff"/>
  <path id="Path_8" data-name="Path 8" d="M22.641,47.982a3.894,3.894,0,0,1-2.3-7.035,28.5,28.5,0,0,0,4.491-3.864c-1.564-.645-3.884-1.738-4.765-4.4-1.578-4.763,2.959-9.1,7.089-12.353a3.894,3.894,0,0,1,4.815,6.12,23.657,23.657,0,0,0-3.828,3.57c1.54.625,4.047,1.677,4.941,4.458,1.556,4.844-3.243,9.164-8.142,12.75a3.872,3.872,0,0,1-2.3.753Zm0,0" transform="translate(-9.28 -9.653)" fill="#ffb8d5"/>
  <path id="Path_9" data-name="Path 9" d="M99.53,118.369a3.862,3.862,0,0,1-2.3-.753c-4.9-3.586-9.7-7.905-8.144-12.75.893-2.781,3.4-3.832,4.941-4.458a23.477,23.477,0,0,0-3.828-3.57,3.894,3.894,0,0,1,4.815-6.12c4.13,3.249,8.667,7.59,7.089,12.353-.882,2.661-3.2,3.753-4.765,4.4a28.5,28.5,0,0,0,4.491,3.864,3.894,3.894,0,0,1-2.3,7.035Zm-4.876-16.982h0Zm0,0" transform="translate(-43.921 -44.499)" fill="#fce6a9"/>
  <path id="Path_10" data-name="Path 10" d="M61.407,91.282a2.918,2.918,0,1,0-2.917,2.923A2.919,2.919,0,0,0,61.407,91.282Zm0,0" transform="translate(-27.511 -43.744)" fill="#83d9ff"/>
  <path id="Path_11" data-name="Path 11" d="M150.087,47.267a2.918,2.918,0,1,0-2.919,2.923A2.922,2.922,0,0,0,150.087,47.267Zm0,0" transform="translate(-71.414 -21.953)" fill="#69d998"/>
  <path id="Path_12" data-name="Path 12" d="M15.215,132.6a2.918,2.918,0,1,0-2.919,2.923A2.922,2.922,0,0,0,15.215,132.6Zm0,0" transform="translate(-4.643 -64.198)" fill="#69d998"/>
  <path id="Path_13" data-name="Path 13" d="M70.723,2.923A2.918,2.918,0,1,0,67.8,5.846,2.921,2.921,0,0,0,70.723,2.923Zm0,0" transform="translate(-32.123)" fill="#fce6a9"/>
  <path id="Path_14" data-name="Path 14" d="M224.546,8.712a2.917,2.917,0,1,0-2.917,2.923A2.921,2.921,0,0,0,224.546,8.712Zm0,0" transform="translate(-108.277 -2.866)" fill="#ffb8d5"/>
  <path id="Path_15" data-name="Path 15" d="M78.976,326.035l20.5,28.172a7.776,7.776,0,0,1,1.116,9.485l-15.824,38.5a1.25,1.25,0,0,1-1.154.775H76.69a1.25,1.25,0,0,1-1.219-1.523l7.466-33.227a2.919,2.919,0,0,0-.349-2.795l-30.15-39.03Zm0,0" transform="translate(-25.96 -161.41)" fill="#4f7693"/>
  <path id="Path_16" data-name="Path 16" d="M86.084,399.222a4.06,4.06,0,0,1-3.961-4.949l6.694-29.8a2.919,2.919,0,0,0-.349-2.795L61.3,326.508l-8.864.12,30.148,39.03a2.919,2.919,0,0,1,.351,2.795L75.471,401.68A1.25,1.25,0,0,0,76.69,403.2h6.923a1.247,1.247,0,0,0,1.154-.775Zm0,0" transform="translate(-25.96 -161.644)" fill="#38627c"/>
  <path id="Path_17" data-name="Path 17" d="M69.742,346.032l8.44,17.219a6.118,6.118,0,0,1-1.142,5.54l-21.7,33.763a1.247,1.247,0,0,1-1.051.572H47.31a1.249,1.249,0,0,1-1.2-1.592l11.039-38.546a5.8,5.8,0,0,0-.258-3.919L49.28,326.553l14.357-.193" transform="translate(-22.803 -161.57)" fill="#4f7693"/>
  <path id="Path_18" data-name="Path 18" d="M52.839,194.22l2.866,8.452a7.59,7.59,0,0,0,9.627,4.751l3.345-1.132a7.591,7.591,0,0,0,4.751-9.627l-2.864-8.452a7.59,7.59,0,0,0-9.627-4.753l-3.345,1.134a7.592,7.592,0,0,0-4.753,9.627Zm0,0" transform="translate(-25.959 -90.625)" fill="#fecbaa"/>
  <path id="Path_19" data-name="Path 19" d="M51.019,504.365H35.577a3.893,3.893,0,1,1,0-7.787H51.019a3.893,3.893,0,1,1,0,7.787Zm0,0" transform="translate(-15.686 -245.84)" fill="#2f5066"/>
  <path id="Path_20" data-name="Path 20" d="M106.226,504.365H90.785a3.893,3.893,0,0,1,0-7.787h15.442a3.893,3.893,0,1,1,0,7.787Zm0,0" transform="translate(-43.017 -245.84)" fill="#2f5066"/>
  <path id="Path_21" data-name="Path 21" d="M37.176,234.672,9.489,248.942A17.514,17.514,0,0,0,0,264.508v23.241a12.632,12.632,0,0,0,12.633-12.631v-8.574a6.094,6.094,0,0,1,3.381-5.456L30,254.136" transform="translate(0 -116.179)" fill="#fd9e28"/>
  <path id="Path_22" data-name="Path 22" d="M121.86,178.736v-8.625a3.57,3.57,0,0,0-6.556-1.957l-7.061,10.777L58.055,203.418a9.456,9.456,0,0,0-5.361,8.452l-.256,35.558,26.538-.357.907-37.9,33.83-17.316a14.519,14.519,0,0,0,8.146-13.122Zm0,0" transform="translate(-25.96 -82.446)" fill="#ffb14c"/>
  <path id="Path_23" data-name="Path 23" d="M116.282,167.16v7.172a14.519,14.519,0,0,1-8.146,13.122l-23.718,12.14a19.087,19.087,0,0,0-10.385,16.533L73.9,221.74a21.731,21.731,0,0,1-21.432,21.209l-.034,4.489,26.538-.359.907-37.9,33.83-17.318a14.516,14.516,0,0,0,8.146-13.122v-8.625a3.574,3.574,0,0,0-5.574-2.959Zm0,0" transform="translate(-25.958 -82.454)" fill="#fd9e28"/>
  <path id="Path_24" data-name="Path 24" d="M189.926,178.736v-8.625a3.569,3.569,0,0,1,6.554-1.957l7.061,10.777,50.189,24.487a9.46,9.46,0,0,1,5.361,8.452l.256,35.558-12.361,1.349-14.178-1.706-.907-37.9-33.83-17.316a14.519,14.519,0,0,1-8.146-13.122Zm0,0" transform="translate(-94.026 -82.446)" fill="#83d9ff"/>
  <path id="Path_25" data-name="Path 25" d="M252.561,326.035l-20.5,28.172a7.776,7.776,0,0,0-1.116,9.485l15.824,38.5a1.25,1.25,0,0,0,1.154.775h6.923a1.248,1.248,0,0,0,1.217-1.523L248.6,368.219a2.919,2.919,0,0,1,.349-2.795l30.15-39.03Zm0,0" transform="translate(-113.778 -161.41)" fill="#4f7693"/>
  <path id="Path_26" data-name="Path 26" d="M261.51,368.46a2.918,2.918,0,0,1,.349-2.795l30.15-39.032-8.325-.11-27.229,35.249a2.918,2.918,0,0,0-.349,2.795l6.6,29.369a4.411,4.411,0,0,1-4.3,5.379l1.282,3.12a1.248,1.248,0,0,0,1.154.773h6.923a1.248,1.248,0,0,0,1.217-1.521Zm0,0" transform="translate(-126.687 -161.651)" fill="#38627c"/>
  <path id="Path_27" data-name="Path 27" d="M278.386,346.032l-8.44,17.219a6.112,6.112,0,0,0,1.142,5.54l21.7,33.763a1.252,1.252,0,0,0,1.051.572h6.98a1.249,1.249,0,0,0,1.2-1.592l-11.039-38.546a5.814,5.814,0,0,1,.26-3.919l7.609-32.517-14.359-.193" transform="translate(-133.526 -161.57)" fill="#4f7693"/>
  <path id="Path_28" data-name="Path 28" d="M306.03,194.22l-2.864,8.452a7.591,7.591,0,0,1-9.627,4.751l-3.345-1.132a7.594,7.594,0,0,1-4.753-9.627l2.866-8.452a7.589,7.589,0,0,1,9.627-4.753l3.343,1.134A7.589,7.589,0,0,1,306.03,194.22Zm0,0" transform="translate(-141.113 -90.625)" fill="#fecbaa"/>
  <path id="Path_29" data-name="Path 29" d="M321.5,504.365H306.054a3.893,3.893,0,1,1,0-7.787H321.5a3.893,3.893,0,1,1,0,7.787Zm0,0" transform="translate(-149.59 -245.84)" fill="#2f5066"/>
  <path id="Path_30" data-name="Path 30" d="M266.29,504.365H250.85a3.893,3.893,0,1,1,0-7.787h15.44a3.893,3.893,0,1,1,0,7.787Zm0,0" transform="translate(-122.261 -245.84)" fill="#2f5066"/>
  <path id="Path_31" data-name="Path 31" d="M306.227,234.672l27.686,14.27a17.514,17.514,0,0,1,9.489,15.566v23.241a12.632,12.632,0,0,1-12.633-12.631v-8.574a6.094,6.094,0,0,0-3.381-5.456L313.4,254.136" transform="translate(-151.603 -116.179)" fill="#43a3f9"/>
  <path id="Path_32" data-name="Path 32" d="M189.926,177.44a25.663,25.663,0,0,0,10.211,9l43.844,21.393a9.462,9.462,0,0,1,5.363,8.452l.223,31.016,9.781.13-.256-35.558a9.46,9.46,0,0,0-5.361-8.452l-50.187-24.487-7.063-10.777a3.569,3.569,0,0,0-6.554,1.957Zm0,0" transform="translate(-94.026 -82.446)" fill="#5fc9ed"/>
  <g id="Group_2" data-name="Group 2" transform="translate(69.493 46.199)">
    <path id="Path_33" data-name="Path 33" d="M186.109,117.974a3.893,3.893,0,0,1-3.893-3.893V95.392a3.893,3.893,0,1,1,7.787,0V114.08A3.894,3.894,0,0,1,186.109,117.974Zm0,0" transform="translate(-159.702 -91.497)" fill="#a7c7d3"/>
    <path id="Path_34" data-name="Path 34" d="M210.647,133.913a3.894,3.894,0,0,1-2.753-6.647l10.122-10.124a3.894,3.894,0,1,1,5.507,5.507L213.4,132.773a3.888,3.888,0,0,1-2.753,1.14Zm0,0" transform="translate(-171.85 -103.629)" fill="#a7c7d3"/>
    <path id="Path_35" data-name="Path 35" d="M151.644,133.913a3.885,3.885,0,0,1-2.753-1.14l-10.122-10.124a3.893,3.893,0,1,1,5.5-5.507L154.4,127.266a3.894,3.894,0,0,1-2.753,6.647Zm0,0" transform="translate(-137.628 -103.629)" fill="#a7c7d3"/>
  </g>
</svg>
