<svg id="target" xmlns="http://www.w3.org/2000/svg" width="189.152" height="208.568" viewBox="0 0 189.152 208.568">
  <path id="Path_120" data-name="Path 120" d="M114.235,438.239l-12.6,7.754L77.951,460.569a2.349,2.349,0,0,1-3.408-2.88l8.52-21.124,4.33-10.741Zm0,0" transform="translate(-44.274 -252.36)" fill="#38627c"/>
  <path id="Path_121" data-name="Path 121" d="M332.137,460.569,308.631,446.1l-12.771-7.861L322.7,425.824l4.424,10.97,8.426,20.895A2.352,2.352,0,0,1,332.137,460.569Zm0,0" transform="translate(-175.542 -252.36)" fill="#38627c"/>
  <path id="Path_122" data-name="Path 122" d="M191.953,98.186A93.784,93.784,0,1,1,98.17,4.4,93.784,93.784,0,0,1,191.953,98.186Zm0,0" transform="translate(-2.803 -2.609)" fill="#fdb659"/>
  <path id="Path_123" data-name="Path 123" d="M100.049,425.824l26.843,12.415-12.6,7.754a104.746,104.746,0,0,1-18.573-9.427Zm0,0" transform="translate(-56.931 -252.36)" fill="#2f5066"/>
  <path id="Path_124" data-name="Path 124" d="M327.124,436.794a104.149,104.149,0,0,1-18.494,9.3l-12.771-7.859L322.7,425.824Zm0,0" transform="translate(-175.542 -252.36)" fill="#2f5066"/>
  <path id="Path_125" data-name="Path 125" d="M210.25,116.482A93.794,93.794,0,0,1,35.257,163.417,93.149,93.149,0,0,0,59.409,173.2,80.448,80.448,0,1,0,173.187,59.435,92.993,92.993,0,0,0,163.4,35.274a93.741,93.741,0,0,1,46.85,81.208Zm0,0" transform="translate(-21.099 -20.905)" fill="#ff8812"/>
  <path id="Path_126" data-name="Path 126" d="M232.054,151.63A80.451,80.451,0,0,1,94.546,208.346a94.394,94.394,0,0,0,47.5-.5,57.326,57.326,0,0,0,66.717-69.512,94.407,94.407,0,0,0-.436-43.755,80.187,80.187,0,0,1,23.73,57.048Zm0,0" transform="translate(-56.236 -56.053)" fill="#e9edf1"/>
  <path id="Path_127" data-name="Path 127" d="M177.078,83.311A93.845,93.845,0,0,1,60.509,174.3,80.448,80.448,0,0,1,174.286,60.538a93.685,93.685,0,0,1,2.791,22.774Zm0,0" transform="translate(-22.198 -22.007)" fill="#fff"/>
  <path id="Path_128" data-name="Path 128" d="M279.411,215.288a57.312,57.312,0,0,1-68.266,56.219A93.93,93.93,0,0,0,277.859,202a57.442,57.442,0,0,1,1.552,13.292Zm0,0" transform="translate(-125.337 -119.711)" fill="#ff8812"/>
  <path id="Path_129" data-name="Path 129" d="M210.523,138.005a93.928,93.928,0,0,1-66.715,69.512,57.28,57.28,0,1,1,66.715-69.512Zm0,0" transform="translate(-58.001 -55.722)" fill="#fdb659"/>
  <path id="Path_130" data-name="Path 130" d="M219.021,184.765a34.272,34.272,0,1,1-34.272-34.272A34.273,34.273,0,0,1,219.021,184.765Zm0,0" transform="translate(-89.382 -89.188)" fill="#fff"/>
  <path id="Path_131" data-name="Path 131" d="M230.1,220.2a9.914,9.914,0,1,1-9.915-9.915A9.916,9.916,0,0,1,230.1,220.2Zm0,0" transform="translate(-124.82 -124.623)" fill="#fdb659"/>
  <g id="Group_4" data-name="Group 4">
    <path id="Path_132" data-name="Path 132" d="M95.867,99.051a3.163,3.163,0,0,1-2.24-.928l-92.2-92.2A3.168,3.168,0,0,1,5.909,1.443l92.2,92.2a3.168,3.168,0,0,1-2.24,5.409Zm0,0" transform="translate(-0.501 -0.306)" fill="#2f5066"/>
    <path id="Path_133" data-name="Path 133" d="M15.449,18H3.785a3.167,3.167,0,1,1,0-6.335h8.5v-8.5a3.167,3.167,0,1,1,6.335,0V14.834A3.167,3.167,0,0,1,15.449,18Zm0,0" transform="translate(-0.57 0)" fill="#2f5066"/>
    <path id="Path_134" data-name="Path 134" d="M37.613,40.168H24.524a3.168,3.168,0,1,1,0-6.336h9.923V23.91a3.167,3.167,0,1,1,6.335,0V37a3.168,3.168,0,0,1-3.168,3.168Zm0,0" transform="translate(-12.86 -12.293)" fill="#2f5066"/>
  </g>
</svg>
