<svg id="team" xmlns="http://www.w3.org/2000/svg" width="248.529" height="236.844" viewBox="0 0 248.529 236.844">
  <path id="Path_53" data-name="Path 53" d="M241.675,181.035H214.211a8.123,8.123,0,0,0-8.123,8.123v47.252a8.123,8.123,0,0,0-8.123-8.123H170.5a8.123,8.123,0,0,0-8.123,8.123v32.858a8.123,8.123,0,0,0-8.123-8.123H126.794a8.123,8.123,0,0,0-8.123,8.123v21.663a8.123,8.123,0,0,0-8.123-8.123H83.084a8.121,8.121,0,0,0-8.121,8.123V311.1a8.123,8.123,0,0,0-8.123-8.123H39.377a8.123,8.123,0,0,0-8.123,8.123v15.419H249.8V189.158a8.12,8.12,0,0,0-8.121-8.123Zm0,0" transform="translate(-16.083 -93.402)" fill="#ff84a7"/>
  <path id="Path_54" data-name="Path 54" d="M74.962,455.788H31.254V440.369a8.123,8.123,0,0,1,8.123-8.123H66.839a8.123,8.123,0,0,1,8.123,8.123Zm0,0" transform="translate(-16.083 -222.673)" fill="#ffb14c"/>
  <path id="Path_55" data-name="Path 55" d="M165.009,434.409H121.3V398.822a8.121,8.121,0,0,1,8.121-8.123h27.464a8.123,8.123,0,0,1,8.123,8.123Zm0,0" transform="translate(-62.42 -201.293)" fill="#5186ff"/>
  <path id="Path_56" data-name="Path 56" d="M255.054,411.443h-43.71v-57.25a8.123,8.123,0,0,1,8.123-8.123h27.464a8.123,8.123,0,0,1,8.123,8.123Zm0,0" transform="translate(-108.756 -178.328)" fill="#ffb14c"/>
  <path id="Path_57" data-name="Path 57" d="M345.1,376.609H301.391V286.5a8.123,8.123,0,0,1,8.121-8.123h27.464A8.123,8.123,0,0,1,345.1,286.5Zm0,0" transform="translate(-155.093 -143.494)" fill="#5186ff"/>
  <path id="Path_58" data-name="Path 58" d="M435.143,326.517h-43.71V189.158a8.123,8.123,0,0,1,8.123-8.123H427.02a8.123,8.123,0,0,1,8.123,8.123Zm0,0" transform="translate(-201.428 -93.402)" fill="#ff84a7"/>
  <path id="Path_59" data-name="Path 59" d="M435.143,326.517h-43.71V189.158a8.123,8.123,0,0,1,8.123-8.123H427.02a8.123,8.123,0,0,1,8.123,8.123Zm0,0" transform="translate(-201.428 -93.402)" fill="#ffb14c"/>
  <path id="Path_60" data-name="Path 60" d="M66.473,432.246H39.01a8.123,8.123,0,0,0-8.123,8.123v5.463H53.881A8.123,8.123,0,0,1,62,453.955v1.834H74.6V440.369A8.123,8.123,0,0,0,66.473,432.246Zm0,0" transform="translate(-15.894 -222.673)" fill="#fd9e28"/>
  <path id="Path_61" data-name="Path 61" d="M156.518,390.7H129.055a8.123,8.123,0,0,0-8.121,8.123v5.463h.994a30.123,30.123,0,0,1,30.122,30.124h12.592V398.822A8.123,8.123,0,0,0,156.518,390.7Zm0,0" transform="translate(-62.231 -201.293)" fill="#476eea"/>
  <path id="Path_62" data-name="Path 62" d="M246.563,346.07H219.1a8.123,8.123,0,0,0-8.123,8.123v5.463h1a30.124,30.124,0,0,1,30.122,30.124v21.663h12.592v-57.25a8.123,8.123,0,0,0-8.123-8.123Zm0,0" transform="translate(-108.566 -178.327)" fill="#fd9e28"/>
  <path id="Path_63" data-name="Path 63" d="M336.61,278.379H309.147a8.123,8.123,0,0,0-8.123,8.123v5.463h.994a30.121,30.121,0,0,1,30.122,30.122v54.523h12.592V286.5a8.123,8.123,0,0,0-8.121-8.123Zm0,0" transform="translate(-154.904 -143.494)" fill="#476eea"/>
  <path id="Path_64" data-name="Path 64" d="M426.653,181.035H399.19a8.123,8.123,0,0,0-8.123,8.123v5.463h1a30.123,30.123,0,0,1,30.122,30.122V326.517h12.592V189.158a8.123,8.123,0,0,0-8.123-8.123Zm0,0" transform="translate(-201.239 -93.402)" fill="#fd9e28"/>
  <path id="Path_65" data-name="Path 65" d="M244.8,480.522H3.727a3.728,3.728,0,1,1,0-7.456H244.8a3.728,3.728,0,1,1,0,7.456Zm0,0" transform="translate(0.001 -243.679)" fill="#2f5066"/>
  <path id="Path_66" data-name="Path 66" d="M248.981,64.123,261.691,92.9l13.271.848,10.523-9.771L272.51,51.538a12.231,12.231,0,0,0-16.329-6.13L201.14,71.163a11.426,11.426,0,0,0,14.866,6.36" transform="translate(-103.505 -23.022)" fill="#ffb14c"/>
  <path id="Path_67" data-name="Path 67" d="M243.527,87.333A7.492,7.492,0,0,0,233.9,83.4L207.536,93.9a11.488,11.488,0,0,1-1.926.58,11.43,11.43,0,0,0,12.7,2.9Zm0,0" transform="translate(-105.805 -42.884)" fill="#fd9e28"/>
  <path id="Path_68" data-name="Path 68" d="M333.681,51.541a12.234,12.234,0,0,0-13.227-7.1,12.181,12.181,0,0,1,2.457,3.616l6.678,16.693a16.589,16.589,0,0,1-9.577,21.694l2.85,6.451,23.795-8.923Zm0,0" transform="translate(-164.675 -23.025)" fill="#fd9e28"/>
  <path id="Path_69" data-name="Path 69" d="M296.839,134.989l-25.253,25.617a7.452,7.452,0,0,0-1.069,9.084L288.849,200h8.923l-10.349-25.977a2.794,2.794,0,0,1,.336-2.675l32.875-45.281Zm0,0" transform="translate(-138.653 -65.115)" fill="#38627c"/>
  <path id="Path_70" data-name="Path 70" d="M317.411,134.989l23.795-8.923,2.488,5.4a17.805,17.805,0,0,1-3.038,19.469l-11.6,12.678a2.235,2.235,0,0,0-.362,2.48l14.85,33.9h-8.923l-23.884-32.475a5.852,5.852,0,0,1-1.092-5.305Zm0,0" transform="translate(-159.225 -65.115)" fill="#4f7693"/>
  <path id="Path_71" data-name="Path 71" d="M299.744,4.63l3.694,7.7a7.27,7.27,0,0,1-3.413,9.7l-3.049,1.462a7.272,7.272,0,0,1-9.7-3.413l-3.692-7.706A7.27,7.27,0,0,1,287,2.677l3.049-1.46a7.266,7.266,0,0,1,9.7,3.413Zm0,0" transform="translate(-145.562 -0.5)" fill="#fecbaa"/>
  <path id="Path_72" data-name="Path 72" d="M108.694,177.97a17.54,17.54,0,0,0,7.8-19.642L68.875,184.193a13.19,13.19,0,0,0-6.894,11.591v35.9l12.863.068,10.345-9.579-.463-29.642" transform="translate(-31.894 -81.717)" fill="#83d9ff"/>
  <path id="Path_73" data-name="Path 73" d="M116.5,158.328l-7.757,4.211A17.523,17.523,0,0,1,100.906,173l-12.4,7.537a23.618,23.618,0,0,0-11.35,20.552A23.619,23.619,0,0,1,62.493,223.31l-.512.209v8.163l23.209-9.513-.461-29.638,23.965-14.562A17.54,17.54,0,0,0,116.5,158.328Zm0,0" transform="translate(-31.894 -81.717)" fill="#43a3f9"/>
  <path id="Path_74" data-name="Path 74" d="M85.189,289.852l21.629,14.587a8.861,8.861,0,0,1,3.84,8.436L107.45,338.8H99.08l-2.188-22.291a3.723,3.723,0,0,0-2.23-3.055l-32.682-14.1Zm0,0" transform="translate(-31.894 -149.398)" fill="#38627c"/>
  <path id="Path_75" data-name="Path 75" d="M52.569,299.362l6.555,26.462a7,7,0,0,1-.6,4.934L43.691,358.971h8.878l22.788-26.529a8.384,8.384,0,0,0,2.017-5.829l-1.6-36.762Zm0,0" transform="translate(-22.483 -149.398)" fill="#4f7693"/>
  <path id="Path_76" data-name="Path 76" d="M69.019,165.06l3.895,7.605a7.27,7.27,0,0,1-3.157,9.784l-3.009,1.542a7.269,7.269,0,0,1-9.784-3.157l-3.895-7.6a7.27,7.27,0,0,1,3.155-9.784l3.011-1.542A7.271,7.271,0,0,1,69.019,165.06Zm0,0" transform="translate(-26.897 -83.146)" fill="#fecbaa"/>
</svg>
